<?xml version="1.0" standalone="no"?>
<!DOCTYPE svg PUBLIC "-//W3C//DTD SVG 20010904//EN"
 "http://www.w3.org/TR/2001/REC-SVG-20010904/DTD/svg10.dtd">
<svg version="1.0" xmlns="http://www.w3.org/2000/svg"
 width="498.000000pt" height="498.000000pt" viewBox="0 0 498.000000 498.000000"
 preserveAspectRatio="xMidYMid meet">
<metadata>
Created by potrace 1.11, written by Peter Selinger 2001-2013
</metadata>
<g transform="translate(0.000000,498.000000) scale(0.100000,-0.100000)"
fill="#000000" stroke="none">
<path d="M1686 3658 c-20 -27 -20 -47 -1 -72 13 -17 30 -18 200 -18 l186 0 -3
-416 c-3 -413 -3 -417 -26 -460 -35 -65 -87 -117 -140 -140 -125 -53 -244 -32
-378 68 l-51 38 0 158 c-1 151 -2 159 -23 176 -25 20 -57 16 -77 -10 -9 -11
-13 -67 -13 -196 l0 -181 58 -46 c131 -106 231 -147 353 -147 136 0 249 56
329 162 44 58 67 107 76 163 4 21 7 216 8 433 l1 395 100 1 c55 0 112 3 126 7
34 9 46 50 24 83 l-15 24 -360 0 -359 0 -15 -22z"/>
<path d="M2566 3665 c-10 -8 -18 -26 -18 -40 0 -45 21 -57 101 -56 l71 0 -2
-507 -3 -507 -68 0 c-59 0 -71 -3 -87 -23 -10 -12 -16 -31 -13 -42 11 -42 26
-45 247 -46 234 -1 256 4 256 55 0 45 -22 55 -119 57 -47 1 -89 2 -92 3 -4 0
-6 97 -5 213 l1 213 129 0 c121 0 132 -2 175 -26 109 -63 187 -154 312 -362
43 -73 83 -137 88 -143 5 -6 42 -10 90 -9 67 1 84 5 95 20 7 11 13 24 12 29
-6 31 -19 56 -29 57 -7 1 -31 2 -55 4 -23 1 -44 4 -46 6 -2 2 -30 47 -61 99
-96 158 -135 212 -210 286 l-71 71 67 31 c78 37 147 100 180 163 35 68 33 175
-4 252 -46 92 -148 177 -247 204 -14 4 -171 8 -350 10 -272 2 -328 1 -344 -12z
m694 -121 c128 -59 193 -174 152 -267 -32 -73 -97 -122 -208 -158 -56 -18 -92
-22 -218 -23 l-151 -1 -2 225 c-1 124 0 230 2 237 3 8 54 11 192 9 166 -1 193
-4 233 -22z"/>
<path d="M750 3479 c-129 -72 -341 -190 -470 -261 -129 -72 -245 -137 -258
-145 -23 -14 -16 -19 210 -144 128 -72 262 -147 298 -166 36 -20 115 -64 175
-98 252 -142 276 -155 296 -155 25 0 51 35 47 66 -3 29 -15 38 -155 115 -32
18 -137 76 -233 129 -96 54 -201 112 -234 130 -32 17 -79 44 -105 59 -25 15
-54 30 -63 34 -10 3 -18 10 -18 14 0 5 179 108 398 229 268 150 401 229 409
244 17 35 -9 79 -47 80 -8 0 -121 -59 -250 -131z"/>
<path d="M3903 3595 c-26 -18 -30 -57 -8 -78 8 -9 108 -67 222 -130 115 -64
233 -129 263 -146 30 -17 115 -63 187 -103 73 -40 133 -75 133 -78 -1 -4 -386
-220 -706 -395 -93 -51 -114 -69 -114 -98 0 -27 28 -57 54 -57 9 0 175 88 369
196 194 108 414 231 489 273 76 42 138 79 138 82 0 3 -15 13 -32 22 -35 17
-81 43 -293 162 -71 40 -152 85 -180 100 -27 15 -142 79 -254 142 -113 62
-214 116 -225 119 -12 2 -31 -2 -43 -11z"/>
<path d="M4948 2048 c-2 -7 -4 -177 -4 -378 1 -326 3 -365 17 -368 14 -3 16
33 17 360 0 200 -2 371 -4 381 -6 20 -20 23 -26 5z"/>
<path d="M4408 1927 c-37 -32 -50 -67 -25 -67 19 1 87 66 87 84 0 25 -21 19
-62 -17z"/>
<path d="M200 1917 c0 -40 5 -46 31 -40 14 4 19 14 19 39 0 30 -3 34 -25 34
-22 0 -25 -4 -25 -33z"/>
<path d="M1685 1931 c-9 -16 3 -31 25 -31 17 0 18 -10 17 -135 0 -126 -1 -135
-19 -135 -13 0 -18 -6 -16 -17 5 -25 101 -26 106 -1 2 9 -4 18 -14 20 -28 5
-28 121 1 147 28 27 66 35 89 18 15 -11 19 -28 20 -86 2 -69 1 -73 -22 -82
-20 -8 -22 -12 -11 -25 18 -22 103 -15 107 9 2 10 -3 17 -12 17 -19 0 -17 -4
-21 83 -1 37 -8 79 -15 92 -22 41 -98 54 -137 22 -15 -11 -15 -12 -17 56 l-1
52 -37 3 c-20 2 -39 -2 -43 -7z"/>
<path d="M4135 1930 c-9 -14 3 -30 23 -30 13 0 17 -10 18 -44 0 -41 -1 -44
-19 -34 -92 49 -181 7 -194 -91 -14 -104 90 -179 180 -131 25 13 36 16 35 8
-4 -18 63 -23 73 -7 10 17 2 29 -21 29 -17 0 -19 10 -19 138 0 75 0 145 0 155
-1 13 -10 17 -35 17 -19 0 -38 -4 -41 -10z m4 -144 c21 -16 39 -64 33 -91 -12
-67 -104 -93 -148 -41 -71 81 31 199 115 132z"/>
<path d="M1437 1914 c-4 -4 -7 -22 -7 -41 0 -26 -4 -33 -19 -33 -21 0 -45 -23
-34 -33 3 -4 17 -7 30 -7 22 0 23 -3 23 -83 0 -98 13 -122 73 -130 67 -9 146
22 128 51 -6 10 -14 10 -35 2 -46 -17 -86 -21 -106 -10 -17 9 -20 21 -20 90
l0 80 63 0 c69 0 83 6 66 27 -7 8 -33 13 -70 13 l-58 0 -3 37 c-3 35 -17 51
-31 37z"/>
<path d="M502 1840 c-63 -15 -103 -71 -98 -139 7 -90 114 -145 198 -100 30 16
59 68 60 106 4 91 -71 153 -160 133z m96 -64 c55 -54 19 -144 -61 -151 -31 -3
-42 2 -68 28 -27 26 -30 36 -26 69 11 81 97 111 155 54z"/>
<path d="M824 1834 c-19 -10 -30 -12 -32 -5 -4 13 -42 14 -61 2 -15 -10 -7
-31 12 -31 9 0 12 -23 12 -81 -1 -76 -2 -83 -24 -91 -20 -7 -21 -11 -11 -24
19 -22 104 -16 108 9 2 11 -3 17 -16 17 -17 0 -19 8 -20 63 0 67 12 91 57 108
53 21 74 -7 76 -101 1 -44 -3 -58 -19 -72 -18 -15 -19 -19 -6 -28 17 -11 60
-13 84 -4 17 6 10 34 -8 34 -8 0 -12 26 -13 81 -1 72 -4 84 -25 105 -29 30
-77 37 -114 18z"/>
<path d="M1123 1837 c-33 -8 -43 -15 -43 -29 0 -18 4 -19 43 -12 62 11 89 8
104 -12 21 -29 11 -36 -53 -37 -68 -2 -110 -24 -120 -62 -19 -76 49 -118 144
-90 25 8 42 9 42 3 0 -14 73 -5 78 10 2 6 -7 16 -20 21 -21 8 -23 15 -24 80
-2 101 -2 99 -26 115 -31 20 -75 24 -125 13z m113 -153 c1 -15 -10 -28 -37
-43 -52 -30 -109 -19 -109 19 0 31 39 51 95 48 43 -3 50 -6 51 -24z"/>
<path d="M2090 1835 c-20 -7 -37 -20 -39 -30 -3 -15 2 -17 30 -11 19 4 45 9
58 12 29 6 71 -20 71 -44 0 -14 -8 -17 -52 -14 -96 5 -156 -49 -129 -117 19
-44 70 -58 134 -36 28 9 43 11 48 4 10 -17 73 -6 77 14 2 12 -3 17 -17 17 -23
0 -23 3 -22 93 0 32 -4 67 -9 78 -22 39 -89 55 -150 34z m118 -152 c6 -44
-115 -80 -139 -42 -25 38 20 71 91 67 38 -3 46 -7 48 -25z"/>
<path d="M2450 1835 c-17 -9 -29 -10 -37 -3 -16 13 -65 6 -71 -10 -2 -7 4 -16
14 -18 17 -4 19 -15 18 -82 -2 -96 0 -89 -26 -95 -18 -5 -19 -8 -8 -22 19 -23
103 -17 108 8 2 12 -3 17 -17 17 -19 0 -20 6 -20 63 1 66 14 92 57 108 24 9
71 -7 73 -25 1 -6 2 -41 3 -78 1 -58 -1 -67 -17 -72 -27 -7 -15 -30 17 -34 44
-5 76 6 70 23 -4 8 -12 15 -18 15 -9 0 -12 21 -12 68 1 67 -10 108 -36 130
-22 18 -71 22 -98 7z"/>
<path d="M3404 1839 c-100 -29 -123 -160 -40 -224 54 -41 163 -37 203 7 14 16
15 21 3 28 -8 5 -22 3 -36 -6 -12 -8 -43 -16 -70 -18 -44 -4 -51 -1 -82 30
-19 19 -32 37 -29 40 3 3 54 7 114 7 l108 2 -3 30 c-8 78 -89 128 -168 104z
m75 -40 c27 -10 51 -34 51 -53 0 -3 -41 -6 -90 -6 -89 0 -90 0 -78 21 11 18
58 47 79 49 3 0 20 -5 38 -11z"/>
<path d="M3742 1834 c-18 -7 -32 -9 -32 -5 0 5 -16 9 -35 9 -28 0 -35 -4 -35
-19 0 -10 7 -19 15 -19 12 0 15 -16 15 -84 0 -77 -2 -84 -21 -89 -38 -10 -15
-32 38 -35 39 -2 52 1 57 13 4 12 0 19 -14 22 -18 5 -20 14 -20 74 0 60 3 70
23 83 42 27 65 28 86 7 17 -17 21 -34 21 -91 0 -57 -3 -70 -16 -70 -9 0 -14
-7 -12 -17 3 -14 13 -18 48 -18 35 0 45 4 48 18 2 10 -3 17 -12 17 -16 0 -17
4 -18 95 0 57 -19 101 -47 110 -41 13 -58 13 -89 -1z"/>
<path d="M4390 1842 c-29 -5 -70 -36 -87 -65 -17 -30 -16 -92 1 -126 60 -115
246 -67 246 64 0 82 -74 141 -160 127z m79 -52 c46 -24 55 -93 17 -136 -19
-22 -32 -28 -64 -28 -69 1 -112 61 -87 120 24 58 77 75 134 44z"/>
<path d="M4718 1836 c-21 -8 -38 -9 -38 -4 0 5 -15 8 -32 6 -36 -3 -51 -32
-21 -40 18 -5 19 -18 14 -149 -1 -9 -10 -19 -22 -22 -41 -11 -14 -32 41 -32
55 0 82 21 41 32 -19 5 -21 13 -21 69 0 52 4 67 22 84 12 11 28 21 35 21 7 1
19 2 26 3 6 1 20 -4 30 -12 24 -21 25 -162 1 -162 -9 0 -14 -7 -12 -17 5 -25
91 -26 96 -1 2 9 -4 18 -14 20 -15 3 -17 14 -15 75 3 84 -8 109 -54 129 -19 8
-36 14 -37 14 -2 -1 -20 -7 -40 -14z"/>
<path d="M97 1833 c-4 -3 -7 -12 -7 -20 0 -10 19 -13 73 -13 l72 0 0 -121 c-1
-142 -5 -149 -93 -149 -46 0 -53 -3 -50 -17 3 -14 15 -19 63 -21 56 -3 63 -1
89 27 28 30 29 30 28 158 0 70 -1 136 -1 146 -1 15 -12 17 -84 17 -46 0 -87
-3 -90 -7z"/>
<path d="M3017 1826 c-7 -18 1 -26 29 -26 22 0 23 -3 22 -84 l-1 -85 -31 -3
c-20 -2 -31 -9 -31 -18 0 -12 18 -15 95 -18 52 -1 101 2 109 7 25 16 0 31 -52
31 l-53 0 2 53 c1 28 2 55 3 59 1 4 19 20 41 34 37 25 51 26 93 9 13 -5 17 -2
17 14 0 42 -64 54 -118 21 -40 -24 -40 -24 -38 -2 1 23 -78 31 -87 8z"/>
</g>
</svg>
